# xmcd
# Track frame offsets:
# 150
# 8484
# 24576
# 42399
# 58164
# 78331
# 103581
# 126331
# 143459
# 163011
# 187391
# 206124
# 215194
# 233829
# 253766
# 267421
# 284551
#
# Disc length: 3824 seconds
# Revision: 0
# Processed by: cddbd v1.5.1PL0 Copyright (c) Steve Scherf et al.
# Submitted via: VisiTrax 2.9.10.228 - For more info visit www.synapsa.com
#
DISCID=060eee11
DTITLE=Keys, Alicia - Songs in A Minor
DYEAR=2001
DGENRE=Pop
TTITLE0=Piano and 1 (intro)
TTITLE1=Girlfriend
TTITLE2=How Come U Don't Call Me Anymore?
TTITLE3=Fallin'
TTITLE4=Troubles
TTITLE5=Rock Wit U
TTITLE6=A Woman's Worth
TTITLE7=Jane Doe
TTITLE8=Goodbye
TTITLE9=The Life
TTITLE10=Mr. Man (featuring Jimmy Cozier)
TTITLE11=Never Felt This Way (interlude)
TTITLE12=Butterflies
TTITLE13=Why Do I Feel So Sad
TTITLE14=Caged Bird (outro)
TTITLE15=I'll Be True To You
TTITLE16=Blank
EXTD=Audio CD (June 26, 2001]\n\nLabel: J-Records \nCatalog: #20002 \nASIN
EXTD=: B00005JXS6 \nAmazon.com's Best of 2001\nShe may be beautiful, but Al
EXTD=icia Keys is a musician first and foremost. She plants herself firml
EXTD=y behind the piano keys on her debut, unlike many of the booty-waggin
EXTD=' junior divas who are crowding the R&B videoscape these days. Thoug
EXTD=h many of the tracks on Songs in A Minor are embellished with adolesce
EXTD=nt angst, this 20-year-old's substantial, gorgeously soul-drenched alt
EXTD=o putties the cracks between notes with astonishing ease. "Fallin'," t
EXTD=he album's first single, showcases Keys at her best. She wails plainti
EXTD=vely and passionately over rolling blues chords, in the tradition of t
EXTD=he greats that this young talent clearly wants to align herself with--
EXTD=Stevie Wonder, Donny Hathaway, and Aretha Franklin. She swoops and soa
EXTD=rs over the spicy, flamenco-fueled melody that opens "Mr. Mann," one o
EXTD=f the many winning tracks gathered here. And she digs deep into a rema
EXTD=ke of the beloved Prince B-side, "How Come U Don't Call Me Anymore?" p
EXTD=acking more heat into her melismatic wails than most singers twice he
EXTD=r age. --Sylvia W. Chan
EXTT0=
EXTT1=
EXTT2=
EXTT3=
EXTT4=
EXTT5=
EXTT6=
EXTT7=
EXTT8=
EXTT9=
EXTT10=
EXTT11=
EXTT12=
EXTT13=
EXTT14=
EXTT15=
EXTT16=
PLAYORDER=
